%TF.GenerationSoftware,KiCad,Pcbnew,9.0.1*%
%TF.CreationDate,2025-04-17T11:28:57-04:00*%
%TF.ProjectId,IMUPCB,494d5550-4342-42e6-9b69-6361645f7063,rev?*%
%TF.SameCoordinates,Original*%
%TF.FileFunction,Copper,L1,Top*%
%TF.FilePolarity,Positive*%
%FSLAX46Y46*%
G04 Gerber Fmt 4.6, Leading zero omitted, Abs format (unit mm)*
G04 Created by KiCad (PCBNEW 9.0.1) date 2025-04-17 11:28:57*
%MOMM*%
%LPD*%
G01*
G04 APERTURE LIST*
G04 Aperture macros list*
%AMRoundRect*
0 Rectangle with rounded corners*
0 $1 Rounding radius*
0 $2 $3 $4 $5 $6 $7 $8 $9 X,Y pos of 4 corners*
0 Add a 4 corners polygon primitive as box body*
4,1,4,$2,$3,$4,$5,$6,$7,$8,$9,$2,$3,0*
0 Add four circle primitives for the rounded corners*
1,1,$1+$1,$2,$3*
1,1,$1+$1,$4,$5*
1,1,$1+$1,$6,$7*
1,1,$1+$1,$8,$9*
0 Add four rect primitives between the rounded corners*
20,1,$1+$1,$2,$3,$4,$5,0*
20,1,$1+$1,$4,$5,$6,$7,0*
20,1,$1+$1,$6,$7,$8,$9,0*
20,1,$1+$1,$8,$9,$2,$3,0*%
G04 Aperture macros list end*
%TA.AperFunction,ComponentPad*%
%ADD10RoundRect,0.250000X-0.825000X-0.825000X0.825000X-0.825000X0.825000X0.825000X-0.825000X0.825000X0*%
%TD*%
G04 APERTURE END LIST*
D10*
%TO.P,,1*%
%TO.N,N/C*%
X160000000Y-55000000D03*
%TD*%
%TO.P, ,1*%
%TO.N,N/C*%
X150000000Y-65000000D03*
%TD*%
%TO.P,,1*%
%TO.N,N/C*%
X170000000Y-80000000D03*
%TD*%
%TO.P,,1*%
%TO.N,N/C*%
X130000000Y-75000000D03*
%TD*%
%TO.P,,1*%
%TO.N,N/C*%
X180000000Y-105000000D03*
%TD*%
%TO.P,,1*%
%TO.N,N/C*%
X210000000Y-85000000D03*
%TD*%
%TO.P,,1*%
%TO.N,N/C*%
X160000000Y-105000000D03*
%TD*%
%TO.P,,1*%
%TO.N,N/C*%
X150000000Y-95000000D03*
%TD*%
%TO.P,,1*%
%TO.N,N/C*%
X130000000Y-55000000D03*
%TD*%
%TO.P,,1*%
%TO.N,N/C*%
X160000000Y-75000000D03*
%TD*%
%TO.P,,1*%
%TO.N,N/C*%
X200000000Y-65000000D03*
%TD*%
%TO.P,,1*%
%TO.N,N/C*%
X220000000Y-95000000D03*
%TD*%
%TO.P,,1*%
%TO.N,N/C*%
X210000000Y-105000000D03*
%TD*%
%TO.P,,1*%
%TO.N,N/C*%
X150000000Y-55000000D03*
%TD*%
%TO.P,,1*%
%TO.N,N/C*%
X190000000Y-75000000D03*
%TD*%
%TO.P,,1*%
%TO.N,N/C*%
X180000000Y-55000000D03*
%TD*%
%TO.P,,1*%
%TO.N,N/C*%
X200000000Y-85000000D03*
%TD*%
%TO.P,,1*%
%TO.N,N/C*%
X120000000Y-65000000D03*
%TD*%
%TO.P,,1*%
%TO.N,N/C*%
X190000000Y-55000000D03*
%TD*%
%TO.P,,1*%
%TO.N,N/C*%
X190000000Y-105000000D03*
%TD*%
%TO.P,,1*%
%TO.N,N/C*%
X210000000Y-55000000D03*
%TD*%
%TO.P,,1*%
%TO.N,N/C*%
X130000000Y-105000000D03*
%TD*%
%TO.P,,1*%
%TO.N,N/C*%
X190000000Y-85000000D03*
%TD*%
%TO.P,,1*%
%TO.N,N/C*%
X180000000Y-75000000D03*
%TD*%
%TO.P,,1*%
%TO.N,N/C*%
X130000000Y-85000000D03*
%TD*%
%TO.P,,1*%
%TO.N,N/C*%
X160000000Y-95000000D03*
%TD*%
%TO.P,,1*%
%TO.N,N/C*%
X130000000Y-115000000D03*
%TD*%
%TO.P,,1*%
%TO.N,N/C*%
X150000000Y-105000000D03*
%TD*%
%TO.P,,1*%
%TO.N,N/C*%
X120000000Y-115000000D03*
%TD*%
%TO.P,,1*%
%TO.N,N/C*%
X120000000Y-75000000D03*
%TD*%
%TO.P,,1*%
%TO.N,N/C*%
X220000000Y-85000000D03*
%TD*%
%TO.P,,1*%
%TO.N,N/C*%
X180000000Y-65000000D03*
%TD*%
%TO.P,,1*%
%TO.N,N/C*%
X120000000Y-55000000D03*
%TD*%
%TO.P,,1*%
%TO.N,N/C*%
X150000000Y-75000000D03*
%TD*%
%TO.P,,1*%
%TO.N,N/C*%
X190000000Y-65000000D03*
%TD*%
%TO.P,,1*%
%TO.N,N/C*%
X210000000Y-95000000D03*
%TD*%
%TO.P,,1*%
%TO.N,N/C*%
X190000000Y-95000000D03*
%TD*%
%TO.P,,1*%
%TO.N,N/C*%
X150000000Y-85000000D03*
%TD*%
%TO.P,,1*%
%TO.N,N/C*%
X200000000Y-55000000D03*
%TD*%
%TO.P,,1*%
%TO.N,N/C*%
X130000000Y-95000000D03*
%TD*%
%TO.P,,1*%
%TO.N,N/C*%
X120000000Y-105000000D03*
%TD*%
%TO.P,,1*%
%TO.N,N/C*%
X220000000Y-75000000D03*
%TD*%
%TO.P,,1*%
%TO.N,N/C*%
X130000000Y-65000000D03*
%TD*%
%TO.P,,1*%
%TO.N,N/C*%
X160000000Y-85000000D03*
%TD*%
%TO.P,,1*%
%TO.N,N/C*%
X120000000Y-95000000D03*
%TD*%
%TO.P,,1*%
%TO.N,N/C*%
X180000000Y-95000000D03*
%TD*%
%TO.P,,1*%
%TO.N,N/C*%
X160000000Y-65000000D03*
%TD*%
%TO.P,,1*%
%TO.N,N/C*%
X220000000Y-105000000D03*
%TD*%
%TO.P,,1*%
%TO.N,N/C*%
X200000000Y-75000000D03*
%TD*%
%TO.P,,1*%
%TO.N,N/C*%
X120000000Y-85000000D03*
%TD*%
%TO.P,,1*%
%TO.N,N/C*%
X210000000Y-65000000D03*
%TD*%
%TO.P,,1*%
%TO.N,N/C*%
X140000000Y-80000000D03*
%TD*%
%TO.P,,1*%
%TO.N,N/C*%
X180000000Y-85000000D03*
%TD*%
%TO.P,,1*%
%TO.N,N/C*%
X210000000Y-75000000D03*
%TD*%
M02*
