M48
; DRILL file {KiCad 9.0.1} date 2025-04-17T11:29:17-0400
; FORMAT={-:-/ absolute / metric / decimal}
; #@! TF.CreationDate,2025-04-17T11:29:17-04:00
; #@! TF.GenerationSoftware,Kicad,Pcbnew,9.0.1
; #@! TF.FileFunction,Plated,1,2,PTH
FMAT,2
METRIC
; #@! TA.AperFunction,Plated,PTH,ComponentDrill
T1C1.150
%
G90
G05
T1
X120.0Y-55.0
X120.0Y-65.0
X120.0Y-75.0
X120.0Y-85.0
X120.0Y-95.0
X120.0Y-105.0
X120.0Y-115.0
X130.0Y-55.0
X130.0Y-65.0
X130.0Y-75.0
X130.0Y-85.0
X130.0Y-95.0
X130.0Y-105.0
X130.0Y-115.0
X140.0Y-80.0
X150.0Y-55.0
X150.0Y-65.0
X150.0Y-75.0
X150.0Y-85.0
X150.0Y-95.0
X150.0Y-105.0
X160.0Y-55.0
X160.0Y-65.0
X160.0Y-75.0
X160.0Y-85.0
X160.0Y-95.0
X160.0Y-105.0
X170.0Y-80.0
X180.0Y-55.0
X180.0Y-65.0
X180.0Y-75.0
X180.0Y-85.0
X180.0Y-95.0
X180.0Y-105.0
X190.0Y-55.0
X190.0Y-65.0
X190.0Y-75.0
X190.0Y-85.0
X190.0Y-95.0
X190.0Y-105.0
X200.0Y-55.0
X200.0Y-65.0
X200.0Y-75.0
X200.0Y-85.0
X210.0Y-55.0
X210.0Y-65.0
X210.0Y-75.0
X210.0Y-85.0
X210.0Y-95.0
X210.0Y-105.0
X220.0Y-75.0
X220.0Y-85.0
X220.0Y-95.0
X220.0Y-105.0
M30
